<svg width="400" height="300" xmlns="http://www.w3.org/2000/svg">
  <rect width="400" height="300" fill="#f8fafc" stroke="#e2e8f0" stroke-width="2"/>
  <text x="200" y="25" text-anchor="middle" fill="#1f2937" font-family="Arial, sans-serif" font-size="16" font-weight="bold">Drosophila Neurotoxicity Study</text>
  <rect x="30" y="50" width="100" height="80" fill="#fef3c7" stroke="#f59e0b" stroke-width="2" rx="4"/>
  <text x="80" y="75" text-anchor="middle" fill="#f59e0b" font-family="Arial, sans-serif" font-size="10" font-weight="bold">Test Compounds</text>
  <circle cx="80" cy="100" r="8" fill="#ef4444"/>
  <circle cx="65" cy="115" r="6" fill="#3b82f6"/>
  <circle cx="95" cy="115" r="6" fill="#10b981"/>
  <rect x="150" y="50" width="100" height="80" fill="#e0f2fe" stroke="#0284c7" stroke-width="2" rx="4"/>
  <text x="200" y="75" text-anchor="middle" fill="#0284c7" font-family="Arial, sans-serif" font-size="10" font-weight="bold">Drosophila Models</text>
  <ellipse cx="185" cy="95" rx="8" ry="4" fill="#1f2937"/>
  <ellipse cx="200" cy="105" rx="8" ry="4" fill="#1f2937"/>
  <ellipse cx="215" cy="115" rx="8" ry="4" fill="#1f2937"/>
  <rect x="270" y="50" width="100" height="80" fill="#f0fdf4" stroke="#16a34a" stroke-width="2" rx="4"/>
  <text x="320" y="75" text-anchor="middle" fill="#16a34a" font-family="Arial, sans-serif" font-size="10" font-weight="bold">Behavioral Analysis</text>
  <path d="M290 90 Q310 100 330 90 Q350 100 370 90" stroke="#16a34a" stroke-width="2" fill="none"/>
  <path d="M290 110 Q310 120 330 110 Q350 120 370 110" stroke="#16a34a" stroke-width="2" fill="none"/>
  <rect x="80" y="160" width="240" height="60" fill="#fef2f2" stroke="#ef4444" stroke-width="2" rx="4"/>
  <text x="200" y="185" text-anchor="middle" fill="#ef4444" font-family="Arial, sans-serif" font-size="12" font-weight="bold">ML Prediction Model</text>
  <text x="200" y="205" text-anchor="middle" fill="#ef4444" font-family="Arial, sans-serif" font-size="10">87% Accuracy in Human Neurotoxicity Prediction</text>
</svg>